<svg width="1062" height="486" viewBox="0 0 1062 486" fill="none" xmlns="http://www.w3.org/2000/svg">
<path fill-rule="evenodd" clip-rule="evenodd" d="M1157.66 0L1116.68 80.9832C1075.7 161.966 993.745 323.933 897.34 374.25C800.936 424.566 690.081 363.233 587.254 363.928C484.428 364.622 389.628 427.344 293.224 477.661C196.819 527.978 98.8086 565.889 49.8035 584.844L0.798384 603.8L10.4315 678.233L61.0421 671.683C111.653 665.133 212.874 652.033 314.095 638.933C415.317 625.833 516.538 612.733 617.759 599.633C718.981 586.533 820.202 573.433 921.423 560.332C1022.64 547.232 1123.87 534.132 1174.48 527.582L1225.09 521.032L1157.66 0Z" fill="#B5D4F4"/>
</svg>
