<svg width="1920" height="231" viewBox="0 0 1920 231" fill="none" xmlns="http://www.w3.org/2000/svg">
<path fill-rule="evenodd" clip-rule="evenodd" d="M-25 36.6218L1.33193 44.1384C27.6639 49.7759 80.3277 62.93 132.992 81.7216C185.655 100.513 238.319 124.942 290.983 106.151C343.647 87.3591 396.311 25.3468 448.975 6.55521C501.639 -12.2364 554.302 12.1927 606.966 44.1384C659.63 76.0841 712.294 113.667 764.958 143.734C817.622 175.68 870.286 201.988 922.95 213.263C975.613 226.417 1028.28 226.417 1054.61 226.417H1080.94V264H1054.61C1028.28 264 975.613 264 922.95 264C870.286 264 817.622 264 764.958 264C712.294 264 659.63 264 606.966 264C554.302 264 501.639 264 448.975 264C396.311 264 343.647 264 290.983 264C238.319 264 185.655 264 132.992 264C80.3277 264 27.6639 264 1.33193 264H-25V36.6218Z" fill="#B5D4F4"/>
<path fill-rule="evenodd" clip-rule="evenodd" d="M2064 36.6218L2037.67 44.1384C2011.34 49.7759 1958.67 62.93 1906.01 81.7216C1853.34 100.513 1800.68 124.942 1748.02 106.151C1695.35 87.3591 1642.69 25.3468 1590.03 6.55521C1537.36 -12.2364 1484.7 12.1927 1432.03 44.1384C1379.37 76.0841 1326.71 113.667 1274.04 143.734C1221.38 175.68 1168.71 201.988 1116.05 213.263C1063.39 226.417 1010.72 226.417 984.391 226.417H958.059V264H984.391C1010.72 264 1063.39 264 1116.05 264C1168.71 264 1221.38 264 1274.04 264C1326.71 264 1379.37 264 1432.03 264C1484.7 264 1537.36 264 1590.03 264C1642.69 264 1695.35 264 1748.02 264C1800.68 264 1853.34 264 1906.01 264C1958.67 264 2011.34 264 2037.67 264H2064V36.6218Z" fill="#B5D4F4"/>
</svg>
