<svg width="1920" height="257" viewBox="0 0 1920 257" fill="none" xmlns="http://www.w3.org/2000/svg">
<path fill-rule="evenodd" clip-rule="evenodd" d="M0 35.6507L25.7647 42.9681C51.5294 48.4561 103.059 61.2614 154.588 79.5547C206.118 97.848 257.647 121.629 309.176 103.336C360.706 85.0427 412.235 24.6747 463.765 6.3814C515.294 -11.9119 566.824 11.8694 618.353 42.9681C669.882 74.0667 721.412 110.653 772.941 139.923C824.471 171.021 876 196.632 927.529 207.608C979.059 220.413 1030.59 220.413 1056.35 220.413H1082.12V257H1056.35C1030.59 257 979.059 257 927.529 257C876 257 824.471 257 772.941 257C721.412 257 669.882 257 618.353 257C566.824 257 515.294 257 463.765 257C412.235 257 360.706 257 309.176 257C257.647 257 206.118 257 154.588 257C103.059 257 51.5294 257 25.7647 257H0V35.6507Z" fill="#8FBDED"/>
<path fill-rule="evenodd" clip-rule="evenodd" d="M2044 35.6507L2018.24 42.9681C1992.47 48.4561 1940.94 61.2614 1889.41 79.5547C1837.88 97.848 1786.35 121.629 1734.82 103.336C1683.29 85.0427 1631.76 24.6747 1580.24 6.3814C1528.71 -11.9119 1477.18 11.8694 1425.65 42.9681C1374.12 74.0667 1322.59 110.653 1271.06 139.923C1219.53 171.021 1168 196.632 1116.47 207.608C1064.94 220.413 1013.41 220.413 987.647 220.413H961.882V257H987.647C1013.41 257 1064.94 257 1116.47 257C1168 257 1219.53 257 1271.06 257C1322.59 257 1374.12 257 1425.65 257C1477.18 257 1528.71 257 1580.24 257C1631.76 257 1683.29 257 1734.82 257C1786.35 257 1837.88 257 1889.41 257C1940.94 257 1992.47 257 2018.24 257H2044V35.6507Z" fill="#8FBDED"/>
</svg>
