<svg width="1920" height="217" viewBox="0 0 1920 217" fill="none" xmlns="http://www.w3.org/2000/svg">
<path fill-rule="evenodd" clip-rule="evenodd" d="M1920 221.2L1861.67 231.733C1801.58 242.267 1684.92 263.333 1566.5 226.467C1448.08 189.6 1331.42 94.8 1213 100.067C1094.58 105.333 977.922 210.667 859.5 221.2C741.078 231.733 624.422 147.467 506 121.133C387.578 94.8 270.922 126.4 152.5 115.867C34.0775 105.333 -82.5776 52.6667 -142.673 26.3333L-201 0V316H-142.673C-82.5776 316 34.0775 316 152.5 316C270.922 316 387.578 316 506 316C624.422 316 741.078 316 859.5 316C977.922 316 1094.58 316 1213 316C1331.42 316 1448.08 316 1566.5 316C1684.92 316 1801.58 316 1861.67 316H1920V221.2Z" fill="#B5D4F4"/>
</svg>
