<svg width="1915" height="255" viewBox="0 0 1915 255" fill="none" xmlns="http://www.w3.org/2000/svg">
<path fill-rule="evenodd" clip-rule="evenodd" d="M1915 207.2L1862.34 217.067C1808.08 226.933 1702.75 246.667 1595.83 212.133C1488.91 177.6 1383.59 88.8 1276.67 93.7333C1169.75 98.6667 1064.42 197.333 957.5 207.2C850.579 217.067 745.254 138.133 638.333 113.467C531.412 88.8 426.088 118.4 319.167 108.533C212.246 98.6667 106.921 49.3333 52.6626 24.6667L0 0V296H52.6626C106.921 296 212.246 296 319.167 296C426.088 296 531.412 296 638.333 296C745.254 296 850.579 296 957.5 296C1064.42 296 1169.75 296 1276.67 296C1383.59 296 1488.91 296 1595.83 296C1702.75 296 1808.08 296 1862.34 296H1915V207.2Z" fill="#8FBDED"/>
</svg>
