<svg width="1870" height="342" viewBox="0 0 1870 342" fill="none" xmlns="http://www.w3.org/2000/svg">
<path fill-rule="evenodd" clip-rule="evenodd" d="M0 344L78.7083 329.667C157.417 315.333 314.833 286.667 472.25 286.667C629.667 286.667 787.083 315.333 944.5 293.833C1101.92 272.333 1259.33 200.667 1416.75 143.333C1574.17 86 1731.58 43 1810.29 21.5L1889 0V387H1810.29C1731.58 387 1574.17 387 1416.75 387C1259.33 387 1101.92 387 944.5 387C787.083 387 629.667 387 472.25 387C314.833 387 157.417 387 78.7083 387H0V344Z" fill="#B5D4F4"/>
</svg>
