<svg width="1907" height="911" viewBox="0 0 1907 911" fill="none" xmlns="http://www.w3.org/2000/svg">
<path fill-rule="evenodd" clip-rule="evenodd" d="M-3 209.718L61.2 298.922C125.4 388.126 253.8 566.534 382.2 691.048C510.6 817.42 639 888.04 767.4 906.624C895.8 923.35 1024.2 888.04 1152.6 869.456C1281 852.73 1409.4 852.73 1537.8 852.73C1666.2 852.73 1794.6 852.73 1858.8 852.73H1923V-4.00002H1858.8C1794.6 -4.00002 1666.2 -4.00002 1537.8 -4.00002C1409.4 -4.00002 1281 -4.00002 1152.6 -4.00002C1024.2 -4.00002 895.8 -4.00002 767.4 -4.00002C639 -4.00002 510.6 -4.00002 382.2 -4.00002C253.8 -4.00002 125.4 -4.00002 61.2 -4.00002H-3V209.718Z" fill="url(#paint0_linear_1_4)"/>
<defs>
<linearGradient id="paint0_linear_1_4" x1="960" y1="-4" x2="960" y2="911" gradientUnits="userSpaceOnUse">
<stop stop-color="#3FB1D3"/>
<stop offset="0.5" stop-color="#498BD9"/>
<stop offset="1" stop-color="#5163D9"/>
</linearGradient>
</defs>
</svg>
