<svg width="1106" height="512" viewBox="0 0 1106 512" fill="none" xmlns="http://www.w3.org/2000/svg">
<path fill-rule="evenodd" clip-rule="evenodd" d="M1157.66 0L1116.68 80.9832C1075.7 161.966 993.746 323.933 897.341 374.25C800.937 424.566 690.082 363.233 587.255 363.928C484.429 364.622 389.629 427.344 293.225 477.661C196.82 527.978 98.8096 565.889 49.8045 584.844L0.79936 603.8L10.4325 678.233L61.0431 671.683C111.654 665.133 212.875 652.033 314.096 638.933C415.318 625.833 516.539 612.733 617.76 599.633C718.982 586.533 820.203 573.433 921.424 560.332C1022.65 547.232 1123.87 534.132 1174.48 527.582L1225.09 521.032L1157.66 0Z" fill="#9BCCFF"/>
</svg>
