<svg width="1907" height="970" viewBox="0 0 1907 970" fill="none" xmlns="http://www.w3.org/2000/svg">
<path fill-rule="evenodd" clip-rule="evenodd" d="M-35 201.272L33.9333 299.055C102.867 396.838 240.733 592.405 378.6 728.894C516.467 867.42 654.333 944.832 792.2 965.203C930.067 983.538 1067.93 944.832 1205.8 924.46C1343.67 906.126 1481.53 906.126 1619.4 906.126C1757.27 906.126 1895.13 906.126 1964.07 906.126H2033V-33H1964.07C1895.13 -33 1757.27 -33 1619.4 -33C1481.53 -33 1343.67 -33 1205.8 -33C1067.93 -33 930.067 -33 792.2 -33C654.333 -33 516.467 -33 378.6 -33C240.733 -33 102.867 -33 33.9333 -33H-35V201.272Z" fill="#8FBDED"/>
</svg>
